<svg width="410" height="106" viewBox="0 0 410 106" fill="none" xmlns="http://www.w3.org/2000/svg">
<path d="M61.9221 44.0601L26.3154 44.0322C16.6066 44.0322 8.53591 51.7094 8.28146 61.5771C8.27351 61.8395 8.49217 62.0582 8.75457 62.0582L44.3613 62.0821C54.07 62.086 62.1407 54.4089 62.3952 44.5451C62.4031 44.2827 62.1845 44.064 61.9221 44.064V44.0601Z" fill="#E62058"/>
<path d="M79.9719 17.0278L26.3154 17C16.6066 17 8.53591 24.6771 8.28146 34.5449C8.27351 34.8073 8.49217 35.026 8.75457 35.026L62.4111 35.0498C72.1198 35.0538 80.1906 27.3767 80.445 17.5129C80.453 17.2505 80.2343 17.0318 79.9719 17.0318V17.0278Z" fill="#E62058"/>
<path d="M17.3062 89C22.2905 89 26.3311 84.9594 26.3311 79.9751C26.3311 74.9908 22.2905 70.9502 17.3062 70.9502C12.3218 70.9502 8.28125 74.9908 8.28125 79.9751C8.28125 84.9594 12.3218 89 17.3062 89Z" fill="#E62058"/>
<path d="M127.794 26.051H118.133V80.0057H127.794V26.051Z" fill="#E62058"/>
<path d="M236.122 61.6476C236.122 51.6128 229.061 43.2161 219.101 43.2161C208.399 43.2161 201.561 51.9865 201.561 62.0213C201.561 73.3164 209.663 80.751 220.437 80.751C226.011 80.751 231.732 78.449 235.227 74.2864L229.729 68.788C228.019 70.6447 224.747 72.9506 220.66 72.9506C215.531 72.9506 211.444 69.4559 210.923 64.4028H235.895C236.042 63.5838 236.118 62.6177 236.118 61.6516L236.122 61.6476ZM211.373 57.3379C211.818 54.0658 215.09 51.0204 219.101 51.0204C223.113 51.0204 225.94 54.1414 226.238 57.3379H211.373Z" fill="#E62058"/>
<path d="M161.601 47.3708L160.917 46.8142C158.003 44.4368 154.357 43.1804 150.373 43.1804C140.45 43.1804 132.677 51.4539 132.677 62.0175C132.677 66.7367 134.315 71.2332 137.293 74.6802C140.577 78.4969 145.662 80.775 150.902 80.775C154.707 80.775 158.07 79.5544 160.905 77.1451L161.593 76.5607V80.0156H170.268V43.9398H161.593V47.3708H161.601ZM151.558 73.1376C145.765 73.1376 141.05 68.1878 141.05 62.1009C141.05 56.0141 145.765 51.0643 151.558 51.0643C157.351 51.0643 162.066 56.0141 162.066 62.1009C162.066 68.1878 157.351 73.1376 151.558 73.1376Z" fill="#E62058"/>
<path d="M195.508 43.1844C191.524 43.1844 187.879 44.4407 184.964 46.8182L184.281 47.3748V43.9438H175.605V80.0196H184.269V61.2183C184.269 58.316 185.449 55.5012 187.64 53.5968C189.457 52.0185 191.787 51.0683 194.323 51.0683C196.005 51.0683 197.591 51.4857 199.003 52.2252L201.869 44.397C199.901 43.6138 197.758 43.1804 195.504 43.1804L195.508 43.1844Z" fill="#E62058"/>
<path d="M92.6596 80.002H101.724V51.4363H112.021V43.8944H101.724V42.3319C101.724 38.7816 102.285 37.3543 103.183 36.2093L103.191 36.1973C104.467 34.6826 106.443 33.9153 109.071 33.9153C109.874 33.9153 110.896 34.0306 111.707 34.2055L113.083 26.5721C111.401 26.1666 109.767 25.9956 107.7 25.9956C103.275 25.9956 99.2951 27.4945 96.4882 30.2178C93.8364 32.7901 92.6556 36.412 92.6556 41.9542V43.8983H86.0161V51.4403H92.6556V80.006L92.6596 80.002Z" fill="#E62058"/>
</svg>
